<svg width="48" height="48" viewBox="0 0 48 48" fill="none" xmlns="http://www.w3.org/2000/svg">
  <rect width="48" height="48" rx="12" fill="#23272F"/>
  <g>
    <path d="M14 24c0-5.5 4.5-10 10-10 2.5 0 4.8 1 6.6 2.6l-2.1 2.1C27.3 17.6 25.7 17 24 17c-3.9 0-7 3.1-7 7s3.1 7 7 7c1.7 0 3.3-0.6 4.5-1.7l2.1 2.1C28.8 37 26.5 38 24 38c-5.5 0-10-4.5-10-10z" fill="#FFA116"/>
    <rect x="30.5" y="19" width="7" height="3" rx="1.5" transform="rotate(45 30.5 19)" fill="#FFA116"/>
    <rect x="32.5" y="27" width="7" height="3" rx="1.5" transform="rotate(-45 32.5 27)" fill="#FFA116"/>
  </g>
</svg>
